<?xml version="1.0" standalone="no"?><!-- Generator: Gravit.io --><svg xmlns="http://www.w3.org/2000/svg" xmlns:xlink="http://www.w3.org/1999/xlink" style="isolation:isolate" viewBox="-10 -727 566.929 476.867" width="566.929" height="476.867"><g id="Group"><linearGradient id="_lgradient_0" x1="1.4111111111111116%" y1="24.694444444444443%" x2="93.83888888888889%" y2="80.08055555555556%"><stop offset="0%" stop-opacity="1" style="stop-color:rgb(45,154,125)"/><stop offset="98.69565217391305%" stop-opacity="1" style="stop-color:rgb(64,220,178)"/></linearGradient><path d=" M -10 -488.566 C -10 -620.161 96.839 -727 228.434 -727 C 360.029 -727 466.867 -620.161 466.867 -488.566 C 466.867 -356.971 360.029 -250.133 228.434 -250.133 C 96.839 -250.133 -10 -356.971 -10 -488.566 Z " fill="url(#_lgradient_0)"/><linearGradient id="_lgradient_1" x1="1.4111111111111116%" y1="24.694444444444443%" x2="93.83888888888889%" y2="80.08055555555556%"><stop offset="0.8695652173913043%" stop-opacity="1" style="stop-color:rgb(138,127,255)"/><stop offset="97.82608695652173%" stop-opacity="1" style="stop-color:rgb(97,89,179)"/></linearGradient><path d=" M 210.379 -552.043 C 210.379 -647.676 288.021 -725.318 383.654 -725.318 C 479.287 -725.318 556.929 -647.676 556.929 -552.043 C 556.929 -456.41 479.287 -378.768 383.654 -378.768 C 288.021 -378.768 210.379 -456.41 210.379 -552.043 Z " fill="url(#_lgradient_1)"/><g transform="matrix(1.682,0,0,1.682,22.352,-654.662)"><text transform="matrix(1,0,0,1,21.299,166.992)" style="font-family:&quot;Roboto&quot;;font-weight:500;font-size:180px;font-style:normal;fill:#d0d0d0;stroke:none;">S</text></g><path d=" M 265.538 -644.261 L 281.416 -443.141 L 351.544 -443.141 L 379.33 -533.116 L 416.379 -447.11 L 470.628 -447.11 L 524.878 -634.999 L 482.537 -636.322 L 446.811 -480.189 L 412.409 -570.164 L 355.513 -570.164 L 321.111 -488.128 L 306.556 -642.938 L 265.538 -644.261 Z " fill="none" vector-effect="non-scaling-stroke" stroke-width="13.458" stroke="rgb(193,193,193)" stroke-linejoin="bevel" stroke-linecap="round" stroke-miterlimit="3"/></g></svg>